<svg width="16" height="22" viewBox="0 0 16 22" fill="none" xmlns="http://www.w3.org/2000/svg">
<path d="M15 9.18182C15 15.5455 8 21 8 21C8 21 1 15.5455 1 9.18182C1 7.01187 1.7375 4.93079 3.05025 3.3964C4.36301 1.86201 6.14348 1 8 1C9.85652 1 11.637 1.86201 12.9497 3.3964C14.2625 4.93079 15 7.01187 15 9.18182Z" stroke="#9A9A9A" stroke-width="2" stroke-linecap="round" stroke-linejoin="round"/>
<path d="M8 11.9091C9.28866 11.9091 10.3333 10.688 10.3333 9.18182C10.3333 7.67559 9.28866 6.45455 8 6.45455C6.71134 6.45455 5.66667 7.67559 5.66667 9.18182C5.66667 10.688 6.71134 11.9091 8 11.9091Z" stroke="#9A9A9A" stroke-width="2" stroke-linecap="round" stroke-linejoin="round"/>
</svg>
