<svg width="24" height="20" viewBox="0 0 24 20" fill="none" xmlns="http://www.w3.org/2000/svg">
<path d="M12 0C5.3776 0 0 4.48133 0 10C0 15.5187 5.3776 20 12 20C18.6224 20 24 15.5187 24 10C24 4.48133 18.6224 0 12 0ZM12 0.666667C18.1904 0.666667 23.2 4.84133 23.2 10C23.2 15.1587 18.1904 19.3333 12 19.3333C5.8096 19.3333 0.8 15.1587 0.8 10C0.8 4.84133 5.8096 0.666667 12 0.666667ZM12 2C6.7032 2 2.4 5.586 2.4 10C2.4 14.4147 6.7032 18 12 18C17.2968 18 21.6 14.4147 21.6 10C21.6 5.586 17.2968 2 12 2ZM12 2.66667C16.3176 2.66667 19.896 5.25133 20.648 8.66667H18.2112C17.1832 7.39 14.7296 6.66667 11.9904 6.66667H11.9888C9.2592 6.66667 6.8208 7.39467 5.7984 8.66667H3.3512C4.104 5.25133 7.6824 2.66667 12 2.66667ZM11.9904 7.33333C14.6096 7.33333 16.8744 8.13533 17.5968 9.10267L17.5952 11.4027C16.5885 11.4791 15.6457 11.8471 14.9307 12.4427C14.2157 13.0382 13.7738 13.8237 13.6816 14.6627H10.3184C10.2266 13.8239 9.78497 13.0384 9.07026 12.4428C8.35555 11.8472 7.41297 11.4792 6.4064 11.4027L6.4032 9.11467C7.1136 8.14667 9.3712 7.336 11.9904 7.33333ZM3.2408 9.33333H5.6032L5.6048 10.6667H3.24C3.216 10.4467 3.2 10.2253 3.2 10C3.2 9.77533 3.2176 9.55333 3.2408 9.33333ZM12 9.33333C11.1208 9.33333 10.4 9.934 10.4 10.6667C10.4 11.3993 11.1208 12 12 12C12.8792 12 13.6 11.3993 13.6 10.6667C13.6 9.934 12.8792 9.33333 12 9.33333ZM18.3968 9.33333H20.7592C20.7832 9.55333 20.8 9.77533 20.8 10C20.8 10.2253 20.7832 10.4467 20.76 10.6667H18.3952L18.3968 9.33333ZM12 10C12.4464 10 12.8 10.2947 12.8 10.6667C12.8 11.0387 12.4464 11.3333 12 11.3333C11.5536 11.3333 11.2 11.0387 11.2 10.6667C11.2 10.2947 11.5536 10 12 10ZM3.352 11.3333H5.6064V11.668C5.6064 11.7564 5.64854 11.8412 5.72356 11.9037C5.79857 11.9662 5.90031 12.0013 6.0064 12.0013C6.47856 12.0006 6.94623 12.0776 7.38261 12.2279C7.81898 12.3781 8.21548 12.5987 8.54934 12.8769C8.8832 13.1551 9.14787 13.4855 9.32817 13.8492C9.50847 14.2128 9.60084 14.6025 9.6 14.996C9.6 15.0844 9.64214 15.1692 9.71716 15.2317C9.79217 15.2942 9.89391 15.3293 10 15.3293H10.4V17.206C8.64989 16.9368 7.03907 16.2312 5.78058 15.1826C4.52209 14.134 3.67523 12.7917 3.352 11.3333ZM18.3952 11.3333H20.6488C20.3255 12.7918 19.4785 14.1342 18.2199 15.1828C16.9613 16.2314 15.3503 16.9369 13.6 17.206V15.3293H14C14.1061 15.3293 14.2078 15.2942 14.2828 15.2317C14.3579 15.1692 14.4 15.0844 14.4 14.996C14.3994 14.6025 14.4919 14.2127 14.6724 13.8491C14.8529 13.4854 15.1177 13.155 15.4517 12.8768C15.7857 12.5986 16.1823 12.3781 16.6187 12.2278C17.0552 12.0776 17.523 12.0006 17.9952 12.0013C18.1013 12.0013 18.203 11.9662 18.278 11.9037C18.3531 11.8412 18.3952 11.7564 18.3952 11.668V11.3333ZM11.2 15.3293H12.8V17.298C12.536 17.318 12.2704 17.3333 12 17.3333C11.7296 17.3333 11.464 17.318 11.2 17.298V15.3293Z" fill="black"/>
</svg>
