<svg width="25" height="22" viewBox="0 0 25 22" fill="none" xmlns="http://www.w3.org/2000/svg">
<path d="M16.2656 11.012C18.5588 11.012 20.4179 9.32424 20.4179 7.24232C20.4179 5.16039 18.5588 3.47266 16.2656 3.47266C13.9723 3.47266 12.1133 5.16039 12.1133 7.24232C12.1133 9.32424 13.9723 11.012 16.2656 11.012Z" fill="#D7E0FF"/>
<path d="M16.2656 11.0135C18.5589 11.0135 20.4179 9.32574 20.4179 7.24381C20.4179 5.63332 19.3055 4.25871 17.7401 3.71875" stroke="#4147D5" stroke-width="1.5" stroke-linecap="round" stroke-linejoin="round"/>
<path d="M21.9358 16.31C23.9669 17.5381 22.5954 19.9068 20.155 19.9068H10.9908C8.55044 19.9068 7.17894 17.5381 9.21003 16.31C11.0319 15.2084 13.2198 14.5664 15.5729 14.5664C17.926 14.5664 20.114 15.2084 21.9358 16.31Z" fill="#D7E0FF"/>
<path d="M9.27839 10.2663C11.7642 10.2663 13.7794 8.43681 13.7794 6.18002C13.7794 3.92324 11.7642 2.09375 9.27839 2.09375C6.79253 2.09375 4.77734 3.92324 4.77734 6.18002C4.77734 8.43681 6.79253 10.2663 9.27839 10.2663Z" fill="#D7E0FF" stroke="#4147D5" stroke-width="1.5" stroke-linecap="round" stroke-linejoin="round"/>
<path d="M16.1732 16.0072C18.3749 17.3385 16.8882 19.9061 14.2429 19.9061H4.30889C1.66358 19.9061 0.176885 17.3385 2.37857 16.0072C4.35344 14.8131 6.72514 14.1172 9.27588 14.1172C11.8266 14.1172 14.1983 14.8131 16.1732 16.0072Z" fill="#D7E0FF" stroke="#4147D5" stroke-width="1.5"/>
<path d="M13.8594 19.9078H20.1558C22.5961 19.9078 23.9676 17.5392 21.9365 16.3111C21.3757 15.9719 20.7801 15.6764 20.1558 15.4297" stroke="#4147D5" stroke-width="1.5" stroke-linecap="round"/>
</svg>
