<svg width="20" height="20" viewBox="0 0 20 20" fill="none" xmlns="http://www.w3.org/2000/svg">
<g clip-path="url(#clip0_97_775)">
<path d="M7.5763 7.5013C7.77222 6.94436 8.15893 6.47472 8.66793 6.17558C9.17693 5.87643 9.77538 5.76708 10.3573 5.8669C10.9392 5.96671 11.467 6.26924 11.8472 6.72091C12.2274 7.17258 12.4355 7.74424 12.4346 8.33464C12.4346 10.0013 9.93464 10.8346 9.93464 10.8346M10.0013 14.168H10.0096M18.3346 10.0013C18.3346 14.6037 14.6037 18.3346 10.0013 18.3346C5.39893 18.3346 1.66797 14.6037 1.66797 10.0013C1.66797 5.39893 5.39893 1.66797 10.0013 1.66797C14.6037 1.66797 18.3346 5.39893 18.3346 10.0013Z" stroke="black" stroke-width="1.5" stroke-linecap="round" stroke-linejoin="round"/>
</g>
<defs>
<clipPath id="clip0_97_775">
<rect width="20" height="20" fill="white"/>
</clipPath>
</defs>
</svg>
