<svg width="16" height="16" viewBox="0 0 16 16" fill="none" xmlns="http://www.w3.org/2000/svg">
<g clip-path="url(#clip0_97_769)">
<path d="M8.0013 10.0013C9.10587 10.0013 10.0013 9.10587 10.0013 8.0013C10.0013 6.89673 9.10587 6.0013 8.0013 6.0013C6.89673 6.0013 6.0013 6.89673 6.0013 8.0013C6.0013 9.10587 6.89673 10.0013 8.0013 10.0013Z" stroke="black" stroke-width="1.5" stroke-linecap="round" stroke-linejoin="round"/>
<path d="M12.9346 10.0013C12.8459 10.2024 12.8194 10.4254 12.8586 10.6417C12.8978 10.858 13.0009 11.0575 13.1546 11.2146L13.1946 11.2546C13.3186 11.3785 13.4169 11.5255 13.484 11.6874C13.5511 11.8492 13.5857 12.0227 13.5857 12.198C13.5857 12.3732 13.5511 12.5467 13.484 12.7086C13.4169 12.8704 13.3186 13.0175 13.1946 13.1413C13.0708 13.2653 12.9238 13.3636 12.7619 13.4307C12.6 13.4978 12.4265 13.5324 12.2513 13.5324C12.0761 13.5324 11.9026 13.4978 11.7407 13.4307C11.5789 13.3636 11.4318 13.2653 11.308 13.1413L11.268 13.1013C11.1108 12.9476 10.9113 12.8445 10.695 12.8053C10.4788 12.7661 10.2557 12.7926 10.0546 12.8813C9.85746 12.9658 9.68929 13.1061 9.57084 13.285C9.45239 13.4639 9.38882 13.6734 9.38797 13.888V14.0013C9.38797 14.3549 9.24749 14.6941 8.99744 14.9441C8.7474 15.1942 8.40826 15.3346 8.05463 15.3346C7.70101 15.3346 7.36187 15.1942 7.11183 14.9441C6.86178 14.6941 6.7213 14.3549 6.7213 14.0013V13.9413C6.71614 13.7206 6.64471 13.5066 6.51631 13.3271C6.3879 13.1476 6.20846 13.0108 6.0013 12.9346C5.80022 12.8459 5.57717 12.8194 5.36091 12.8586C5.14465 12.8978 4.94509 13.0009 4.78797 13.1546L4.74797 13.1946C4.62414 13.3186 4.47709 13.4169 4.31522 13.484C4.15336 13.5511 3.97986 13.5857 3.80464 13.5857C3.62941 13.5857 3.45591 13.5511 3.29405 13.484C3.13218 13.4169 2.98513 13.3186 2.8613 13.1946C2.73733 13.0708 2.63899 12.9238 2.57189 12.7619C2.50479 12.6 2.47025 12.4265 2.47025 12.2513C2.47025 12.0761 2.50479 11.9026 2.57189 11.7407C2.63899 11.5789 2.73733 11.4318 2.8613 11.308L2.9013 11.268C3.05499 11.1108 3.15809 10.9113 3.1973 10.695C3.23652 10.4788 3.21005 10.2557 3.1213 10.0546C3.03679 9.85746 2.89647 9.68929 2.71761 9.57084C2.53875 9.45239 2.32916 9.38882 2.11464 9.38797H2.0013C1.64768 9.38797 1.30854 9.24749 1.05849 8.99744C0.808445 8.7474 0.667969 8.40826 0.667969 8.05463C0.667969 7.70101 0.808445 7.36187 1.05849 7.11183C1.30854 6.86178 1.64768 6.7213 2.0013 6.7213H2.0613C2.28196 6.71614 2.49597 6.64471 2.6755 6.51631C2.85503 6.3879 2.99178 6.20846 3.06797 6.0013C3.15671 5.80022 3.18318 5.57717 3.14397 5.36091C3.10476 5.14465 3.00166 4.94509 2.84797 4.78797L2.80797 4.74797C2.684 4.62414 2.58565 4.47709 2.51856 4.31522C2.45146 4.15336 2.41692 3.97986 2.41692 3.80464C2.41692 3.62941 2.45146 3.45591 2.51856 3.29405C2.58565 3.13218 2.684 2.98513 2.80797 2.8613C2.9318 2.73733 3.07885 2.63899 3.24071 2.57189C3.40258 2.50479 3.57608 2.47025 3.7513 2.47025C3.92652 2.47025 4.10002 2.50479 4.26189 2.57189C4.42375 2.63899 4.5708 2.73733 4.69464 2.8613L4.73464 2.9013C4.89175 3.05499 5.09131 3.15809 5.30758 3.1973C5.52384 3.23652 5.74689 3.21005 5.94797 3.1213H6.0013C6.19848 3.03679 6.36665 2.89647 6.4851 2.71761C6.60355 2.53875 6.66711 2.32916 6.66797 2.11464V2.0013C6.66797 1.64768 6.80844 1.30854 7.05849 1.05849C7.30854 0.808445 7.64768 0.667969 8.0013 0.667969C8.35492 0.667969 8.69406 0.808445 8.94411 1.05849C9.19416 1.30854 9.33463 1.64768 9.33463 2.0013V2.0613C9.33549 2.27583 9.39906 2.48542 9.51751 2.66428C9.63596 2.84314 9.80412 2.98346 10.0013 3.06797C10.2024 3.15671 10.4254 3.18318 10.6417 3.14397C10.858 3.10476 11.0575 3.00166 11.2146 2.84797L11.2546 2.80797C11.3785 2.684 11.5255 2.58565 11.6874 2.51856C11.8492 2.45146 12.0227 2.41692 12.198 2.41692C12.3732 2.41692 12.5467 2.45146 12.7086 2.51856C12.8704 2.58565 13.0175 2.684 13.1413 2.80797C13.2653 2.9318 13.3636 3.07885 13.4307 3.24071C13.4978 3.40258 13.5324 3.57608 13.5324 3.7513C13.5324 3.92652 13.4978 4.10002 13.4307 4.26189C13.3636 4.42375 13.2653 4.5708 13.1413 4.69464L13.1013 4.73464C12.9476 4.89175 12.8445 5.09131 12.8053 5.30758C12.7661 5.52384 12.7926 5.74689 12.8813 5.94797V6.0013C12.9658 6.19848 13.1061 6.36665 13.285 6.4851C13.4639 6.60355 13.6734 6.66711 13.888 6.66797H14.0013C14.3549 6.66797 14.6941 6.80844 14.9441 7.05849C15.1942 7.30854 15.3346 7.64768 15.3346 8.0013C15.3346 8.35492 15.1942 8.69406 14.9441 8.94411C14.6941 9.19416 14.3549 9.33463 14.0013 9.33463H13.9413C13.7268 9.33549 13.5172 9.39906 13.3383 9.51751C13.1595 9.63596 13.0191 9.80412 12.9346 10.0013Z" stroke="black" stroke-width="1.5" stroke-linecap="round" stroke-linejoin="round"/>
</g>
<defs>
<clipPath id="clip0_97_769">
<rect width="16" height="16" fill="white"/>
</clipPath>
</defs>
</svg>
