<svg width="16" height="16" viewBox="0 0 16 16" fill="none" xmlns="http://www.w3.org/2000/svg">
<g clip-path="url(#clip0_97_773)">
<path d="M10.668 14V12.6667C10.668 11.9594 10.387 11.2811 9.88692 10.781C9.38682 10.281 8.70855 10 8.0013 10H3.33464C2.62739 10 1.94911 10.281 1.44902 10.781C0.94892 11.2811 0.667969 11.9594 0.667969 12.6667V14M13.3346 5.33333V9.33333M15.3346 7.33333H11.3346M8.33463 4.66667C8.33463 6.13943 7.14073 7.33333 5.66797 7.33333C4.19521 7.33333 3.0013 6.13943 3.0013 4.66667C3.0013 3.19391 4.19521 2 5.66797 2C7.14073 2 8.33463 3.19391 8.33463 4.66667Z" stroke="black" stroke-width="1.5" stroke-linecap="round" stroke-linejoin="round"/>
</g>
<defs>
<clipPath id="clip0_97_773">
<rect width="16" height="16" fill="white"/>
</clipPath>
</defs>
</svg>
