<svg width="19" height="19" viewBox="0 0 19 19" fill="none" xmlns="http://www.w3.org/2000/svg">
<path d="M8.01215 1.66588C8.82807 0.830285 10.1719 0.830285 10.9879 1.66588L11.5995 2.29225C11.9968 2.69915 12.5434 2.92557 13.1121 2.9188L13.9875 2.90837C15.1553 2.89446 16.1055 3.84471 16.0916 5.01251L16.0812 5.8879C16.0744 6.45657 16.3009 7.0032 16.7078 7.40052L17.3341 8.01215C18.1697 8.82807 18.1697 10.1719 17.3341 10.9879L16.7078 11.5995C16.3009 11.9968 16.0744 12.5434 16.0812 13.1121L16.0916 13.9875C16.1055 15.1553 15.1553 16.1055 13.9875 16.0916L13.1121 16.0812C12.5434 16.0744 11.9968 16.3009 11.5995 16.7078L10.9879 17.3341C10.1719 18.1697 8.82807 18.1697 8.01215 17.3341L7.40052 16.7078C7.0032 16.3009 6.45657 16.0744 5.8879 16.0812L5.01251 16.0916C3.84471 16.1055 2.89446 15.1553 2.90837 13.9875L2.9188 13.1121C2.92557 12.5434 2.69915 11.9968 2.29225 11.5995L1.66588 10.9879C0.830285 10.1719 0.830285 8.82807 1.66588 8.01215L2.29225 7.40052C2.69915 7.0032 2.92557 6.45657 2.9188 5.8879L2.90837 5.01251C2.89446 3.84471 3.84471 2.89446 5.01251 2.90837L5.8879 2.9188C6.45657 2.92557 7.0032 2.69915 7.40052 2.29225L8.01215 1.66588Z" stroke="#14213D" stroke-width="2"/>
</svg>
