<svg width="331" height="259" viewBox="0 0 331 259" fill="none" xmlns="http://www.w3.org/2000/svg">
<path d="M49.3157 128.933C37.6934 126.529 15.0832 131.271 5.23092 133.943C3.89502 134.277 1.12302 135.245 0.72225 136.448C0.321479 137.65 0.555262 138.953 0.72225 139.454C3.89502 142.459 10.3408 148.471 10.7415 148.471C11.7435 149.974 15.2502 150.976 35.2887 172.016C46.8109 183.538 78.8726 233.635 77.3697 231.13C75.8668 228.625 93.4005 257.18 101.416 258.182C109.431 259.184 116.946 256.679 123.458 249.165C127.466 243.654 125.462 243.153 133.979 231.13C142.495 219.107 145.501 209.088 150.51 202.575C155.52 196.062 191.088 137.951 195.096 131.438C199.104 124.926 227.659 91.361 231.666 87.3533C235.674 83.3456 252.206 67.3148 259.219 59.8003C264.83 53.7888 308.314 19.5563 329.354 3.19144L330.356 1.68855L329.354 0.68659C330.857 0.0186386 327.651 0.786783 302.803 9.20297C290.279 12.7097 226.657 39.7618 202.611 55.7926C178.564 71.8234 148.507 114.405 141.493 121.92C135.882 127.931 115.109 164.502 105.424 182.035H104.923H103.921C100.414 174.187 91.1963 156.186 82.3793 146.968C71.3581 135.446 63.8437 131.939 49.3157 128.933Z" fill="#3AB793" stroke="black"/>
</svg>
