<svg width="24" height="24" viewBox="0 0 24 24" fill="none" xmlns="http://www.w3.org/2000/svg">
<path d="M11.0952 11.4482C13.5661 11.4482 15.5693 9.44505 15.5693 6.97408C15.5693 4.50311 13.5661 2.5 11.0952 2.5C8.62421 2.5 6.62109 4.50311 6.62109 6.97408C6.62109 9.44505 8.62421 11.4482 11.0952 11.4482Z" fill="#9A9A9A"/>
<path fill-rule="evenodd" clip-rule="evenodd" d="M4.00001 17.6718C3.99883 17.3573 4.06917 17.0466 4.20574 16.7633C4.63429 15.9062 5.84281 15.4519 6.84563 15.2462C7.56886 15.0919 8.30208 14.9888 9.03983 14.9376C10.4057 14.8177 11.7795 14.8177 13.1454 14.9376C13.8831 14.9893 14.6163 15.0924 15.3396 15.2462C16.3424 15.4519 17.5509 15.8633 17.9795 16.7633C18.2541 17.3408 18.2541 18.0114 17.9795 18.5889C17.5509 19.4889 16.3424 19.9003 15.3396 20.0974C14.6172 20.2582 13.8837 20.3642 13.1454 20.4146C12.0337 20.5088 10.9168 20.526 9.80266 20.466C9.54553 20.466 9.29697 20.466 9.03983 20.4146C8.30426 20.3648 7.57358 20.2588 6.8542 20.0974C5.84281 19.9003 4.64286 19.4889 4.20574 18.5889C4.06987 18.3023 3.9996 17.989 4.00001 17.6718Z" fill="#9A9A9A"/>
</svg>
