<svg width="23" height="23" viewBox="0 0 23 23" fill="none" xmlns="http://www.w3.org/2000/svg">
<path d="M10.3973 3.24534H3.11919C2.56769 3.24534 2.03877 3.46442 1.64879 3.8544C1.25882 4.24437 1.03973 4.77329 1.03973 5.3248V19.881C1.03973 20.4325 1.25882 20.9615 1.64879 21.3514C2.03877 21.7414 2.56769 21.9605 3.11919 21.9605H17.6754C18.2269 21.9605 18.7559 21.7414 19.1458 21.3514C19.5358 20.9615 19.7549 20.4325 19.7549 19.881V12.6029M18.1953 1.68574C18.6089 1.27211 19.1699 1.03973 19.7549 1.03973C20.3399 1.03973 20.9009 1.27211 21.3145 1.68574C21.7281 2.09937 21.9605 2.66037 21.9605 3.24534C21.9605 3.8303 21.7281 4.3913 21.3145 4.80493L11.437 14.6824L7.27812 15.7221L8.31785 11.5632L18.1953 1.68574Z" stroke="#101828" stroke-width="2" stroke-linecap="round" stroke-linejoin="round"/>
</svg>
