<svg width="20" height="20" viewBox="0 0 20 20" fill="none" xmlns="http://www.w3.org/2000/svg">
<path d="M18.4492 12.4818C18.8447 12.4818 19.1654 12.1612 19.1654 11.7656V7.11068C19.1654 5.53115 17.8803 4.24609 16.3008 4.24609H15.2136C14.9069 4.24609 14.6345 4.05105 14.5357 3.76069L14.319 3.12414C14.0225 2.25317 13.2052 1.66797 12.2851 1.66797H7.71C6.8078 1.66797 5.99573 2.23813 5.68933 3.08669L5.44143 3.77319C5.33927 4.05603 5.06861 4.24609 4.76786 4.24609H3.69661C2.11708 4.24609 0.832031 5.53115 0.832031 7.11068V15.3464C0.832031 16.9259 2.11708 18.2109 3.69661 18.2109H16.3008C17.8803 18.2109 19.1654 16.9259 19.1654 15.3464C19.1654 14.9508 18.8447 14.6302 18.4492 14.6302C18.0537 14.6302 17.7331 14.9508 17.7331 15.3464C17.7331 16.1361 17.0905 16.7786 16.3008 16.7786H3.69661C2.90685 16.7786 2.26432 16.1361 2.26432 15.3464V7.11068C2.26432 6.32091 2.90685 5.67839 3.69661 5.67839H4.76786C5.67006 5.67839 6.48213 5.10823 6.78854 4.25966L7.03643 3.57317C7.13859 3.29033 7.40926 3.10026 7.71 3.10026H12.2851C12.5918 3.10026 12.8642 3.29534 12.9631 3.58566L13.1798 4.22221C13.4762 5.09319 14.2936 5.67839 15.2136 5.67839H16.3008C17.0905 5.67839 17.7331 6.32091 17.7331 7.11068V11.7656C17.7331 12.1612 18.0537 12.4818 18.4492 12.4818Z" fill="#54B6AB"/>
<path fill-rule="evenodd" clip-rule="evenodd" d="M5.55859 10.8704C5.55859 8.40243 7.56649 6.39453 10.0345 6.39453C12.5025 6.39453 14.5104 8.40243 14.5104 10.8704C14.5104 13.3385 12.5025 15.3464 10.0345 15.3464C7.56649 15.3464 5.55859 13.3385 5.55859 10.8704ZM6.99089 10.8704C6.99089 12.5487 8.35625 13.9141 10.0345 13.9141C11.7128 13.9141 13.0781 12.5487 13.0781 10.8704C13.0781 9.19219 11.7128 7.82682 10.0345 7.82682C8.35625 7.82682 6.99089 9.19219 6.99089 10.8704Z" fill="#54B6AB"/>
</svg>
