<svg width="14" height="12" viewBox="0 0 14 12" fill="none" xmlns="http://www.w3.org/2000/svg">
<path d="M6.76983 4.25073V11.2459" stroke="black" stroke-width="1.5"/>
<path d="M4.76396 4.25059V3.34182C4.76396 2.23401 5.66202 1.33595 6.76983 1.33595V1.33595C7.87765 1.33595 8.77571 2.23401 8.77571 3.34182V4.25059" stroke="black" stroke-width="1.5"/>
<path d="M3.42671 5.99804H0.752204" stroke="black" stroke-width="1.5" stroke-linecap="round"/>
<path d="M12.7862 5.99804H10.1117" stroke="black" stroke-width="1.5" stroke-linecap="round"/>
<path d="M3.42801 8.32909L1.42214 9.49495" stroke="black" stroke-width="1.5" stroke-linecap="round"/>
<path d="M12.1175 9.49495L10.1117 8.32909" stroke="black" stroke-width="1.5" stroke-linecap="round"/>
<path d="M5.09696 1.6266L4.09403 0.752204" stroke="black" stroke-width="1.5" stroke-linecap="round"/>
<path d="M8.4427 1.6266L9.44564 0.752204" stroke="black" stroke-width="1.5" stroke-linecap="round"/>
<path d="M3.42801 5.41659C3.42801 4.77271 3.94998 4.25073 4.59387 4.25073H8.94841C9.59229 4.25073 10.1143 4.77271 10.1143 5.41659V7.90276C10.1143 9.74912 8.6175 11.2459 6.77114 11.2459V11.2459C4.92478 11.2459 3.42801 9.74912 3.42801 7.90276V5.41659Z" stroke="black" stroke-width="1.5"/>
</svg>
