<svg width="24" height="24" viewBox="0 0 24 24" fill="none" xmlns="http://www.w3.org/2000/svg">
<path fill-rule="evenodd" clip-rule="evenodd" d="M10 7C10 5.89543 10.8954 5 12 5C13.1046 5 14 5.89543 14 7C14 8.10457 13.1046 9 12 9C10.8954 9 10 8.10457 10 7ZM12 3C9.79086 3 8 4.79086 8 7C8 9.20914 9.79086 11 12 11C14.2091 11 16 9.20914 16 7C16 4.79086 14.2091 3 12 3ZM12.2692 14C15.1867 14 17.5949 16.1801 17.9538 19H6.04615C6.40506 16.1801 8.81332 14 11.7308 14H12.2692ZM11.7308 12C7.46118 12 4 15.4612 4 19.7308C4 20.4317 4.56825 21 5.26923 21H18.7308C19.4317 21 20 20.4317 20 19.7308C20 15.4612 16.5388 12 12.2692 12H11.7308Z" fill="black"/>
</svg>
