<svg width="43" height="40" viewBox="0 0 43 40" fill="none" xmlns="http://www.w3.org/2000/svg">
<ellipse cx="21.5" cy="20" rx="21.5" ry="20" fill="#6D5000"/>
<path d="M24.3661 0H18.6328V2.8H24.3661V0Z" fill="#6D5000"/>
<path d="M24.3661 37.332H18.6328V39.9987H24.3661V37.332Z" fill="#6D5000"/>
<ellipse cx="21.5" cy="20" rx="21.5" ry="20" fill="#FDC93A"/>
<ellipse cx="21.5008" cy="20" rx="17.2" ry="16" fill="#6D5000"/>
<path d="M28.3811 24.0507C28.3811 24.9181 28.1442 25.7335 27.6704 26.4969C27.2155 27.2603 26.5332 27.9022 25.6234 28.4227C24.7326 28.9431 23.6712 29.2554 22.4393 29.3595V31.4674H20.5913V29.3595C18.8097 29.2034 17.3693 28.6916 16.27 27.8241C15.1707 26.9567 14.6211 25.8116 14.6211 24.389H18.0895C18.1464 25.0656 18.3833 25.6294 18.8003 26.0805C19.2172 26.5143 19.8143 26.7918 20.5913 26.9133V21.1881C19.3215 20.8931 18.2885 20.5982 17.4925 20.3033C16.6965 19.991 16.0142 19.5052 15.4456 18.8459C14.8959 18.1867 14.6211 17.2845 14.6211 16.1395C14.6211 14.6995 15.1707 13.5111 16.27 12.5742C17.3693 11.62 18.8097 11.0648 20.5913 10.9087V8.80078H22.4393V10.9087C24.1072 11.0475 25.4434 11.5333 26.4479 12.366C27.4713 13.1814 28.0494 14.3091 28.1821 15.7491H24.7137C24.6568 15.2113 24.4294 14.7342 24.0313 14.3178C23.6333 13.8841 23.1026 13.5891 22.4393 13.433V19.0541C23.7091 19.3317 24.7421 19.6266 25.5381 19.9389C26.3342 20.2339 27.007 20.711 27.5566 21.3702C28.1063 22.0122 28.3811 22.9056 28.3811 24.0507ZM17.9189 15.9833C17.9189 16.6946 18.1464 17.2498 18.6013 17.6488C19.0751 18.0479 19.7384 18.3688 20.5913 18.6117V13.3549C19.7764 13.4417 19.1225 13.7106 18.6297 14.1617C18.1559 14.6127 17.9189 15.22 17.9189 15.9833ZM22.4393 26.9133C23.2732 26.7918 23.9271 26.4882 24.4009 26.0025C24.8748 25.4993 25.1117 24.9008 25.1117 24.2068C25.1117 23.5129 24.8748 22.975 24.4009 22.5933C23.9461 22.1943 23.2922 21.8734 22.4393 21.6305V26.9133Z" fill="#FCAE1D"/>
</svg>
