<svg width="8" height="6" viewBox="0 0 8 6" fill="none" xmlns="http://www.w3.org/2000/svg">
<path d="M6.89769 0.1405L0.191591 5.04846L1.10199 5.71142L7.8045 0.806076L6.89769 0.1405Z" fill="black"/>
<path d="M6.89188 0.13837C7.07545 0.00356211 7.35209 -0.0370209 7.59259 0.0355768C7.83309 0.108175 7.98998 0.279626 7.98998 0.469847C7.98998 0.660069 7.83309 0.83152 7.59259 0.904118C7.35209 0.976715 7.07545 0.936133 6.89188 0.801325C6.64363 0.617604 6.64363 0.322091 6.89188 0.13837Z" fill="black"/>
<path d="M0.187965 5.03512C0.372257 4.89979 0.649973 4.85906 0.891401 4.93194C1.13283 5.00483 1.29032 5.17694 1.29032 5.3679C1.29032 5.55886 1.13283 5.73098 0.891401 5.80386C0.649973 5.87675 0.372257 5.83602 0.187965 5.70069C-0.062655 5.51666 -0.062655 5.21914 0.187965 5.03512Z" fill="black"/>
<path d="M7.80741 5.04486L1.09414 0.144758L0.187334 0.810333L6.89701 5.71044L7.80741 5.04486Z" fill="black"/>
<path d="M7.81029 5.0366C7.99468 5.1708 8.05019 5.37305 7.95089 5.54887C7.85159 5.7247 7.61707 5.8394 7.35688 5.8394C7.09669 5.8394 6.86217 5.7247 6.76287 5.54887C6.66357 5.37305 6.71908 5.1708 6.90348 5.0366C7.15478 4.85511 7.55899 4.85511 7.81029 5.0366Z" fill="black"/>
<path d="M1.11315 0.137418C1.29825 0.272151 1.35397 0.475186 1.25428 0.651689C1.15458 0.828193 0.919154 0.943335 0.657954 0.943335C0.396753 0.943335 0.161325 0.828193 0.0616318 0.651689C-0.038061 0.475186 0.017655 0.272151 0.202756 0.137418C0.454477 -0.0458061 0.86143 -0.0458061 1.11315 0.137418Z" fill="black"/>
</svg>
