<svg width="24" height="20" viewBox="0 0 24 20" fill="none" xmlns="http://www.w3.org/2000/svg">
<path d="M20.1452 8.06402C19.745 8.06402 19.359 8.15883 18.9957 8.335L16.9992 1.23056C16.9648 1.1082 16.9065 1.00506 16.8324 0.937156L15.9212 0.0915404C15.843 0.01851 15.752 -0.0122387 15.6614 0.00441736L13.424 0.403521C13.1969 0.443879 13.0343 0.762267 13.0603 1.11333C13.0864 1.46502 13.2945 1.71679 13.5188 1.67643L15.6167 1.30231L16.2937 1.93075L18.2389 8.85262C17.0769 9.88146 16.2908 11.8155 16.2908 14.032C16.2908 17.3229 18.02 20 20.1456 20C22.2712 20 24 17.3229 24 14.032C23.9996 10.7405 22.2704 8.06402 20.1452 8.06402ZM20.1452 18.7175C18.476 18.7175 17.1179 16.615 17.1179 14.0307C17.1179 12.3395 17.7014 10.8597 18.5711 10.0358L19.0565 11.7636C18.608 12.2812 18.3129 13.1006 18.3129 14.0314C18.3129 15.5951 19.1347 16.8674 20.1452 16.8674C21.1548 16.8674 21.9766 15.5951 21.9766 14.0314C21.9766 12.4683 21.1548 11.196 20.1452 11.196C20.0318 11.196 19.9217 11.2171 19.8137 11.2479L19.3292 9.52335C19.589 9.4106 19.8621 9.3459 20.1452 9.3459C21.8144 9.3459 23.172 11.4478 23.172 14.032C23.172 16.6156 21.814 18.7175 20.1452 18.7175ZM19.402 12.9942L19.7653 14.287C19.8332 14.5279 19.985 14.6726 20.1448 14.6726C20.1998 14.6726 20.2561 14.6553 20.3094 14.6195C20.5188 14.4785 20.6148 14.1006 20.5238 13.7764L20.1597 12.4798C20.7063 12.4926 21.1486 13.1826 21.1486 14.032C21.1486 14.8892 20.6984 15.5868 20.1448 15.5868C19.5907 15.5868 19.1401 14.8892 19.1401 14.032C19.1405 13.631 19.241 13.2697 19.402 12.9942ZM9.41529 13.9795C9.54687 14.269 9.50177 14.6688 9.31515 14.8725C9.24274 14.9513 9.15957 14.9891 9.07722 14.9891C8.9473 14.9891 8.81902 14.8943 8.73833 14.7175C8.32331 13.8046 8.31172 12.2831 8.31172 12.1127V9.13578C8.31172 8.78216 8.4971 8.49516 8.72551 8.49516C8.95392 8.49516 9.13929 8.78216 9.13929 9.13578V12.1127C9.14012 12.6015 9.21584 13.5407 9.41529 13.9795ZM15.8881 9.3869C16.22 8.35614 16.7993 6.171 16.4087 4.46183C16.4074 4.45671 16.4045 4.45351 16.4033 4.44838C16.3992 4.42916 16.3979 4.41058 16.393 4.39136C16.1025 3.24658 15.62 2.77893 14.7275 2.77893C14.4999 2.77893 14.2264 2.80776 13.8916 2.86798C13.033 3.02108 10.6811 3.74049 9.98466 5.1223C9.25225 5.05056 7.1676 4.84428 6.58209 4.76548C6.4952 4.75331 6.36858 4.72833 6.21382 4.69886C5.74252 4.60661 5.03081 4.4676 4.35468 4.4676C3.40753 4.4676 2.8183 4.73474 2.50051 5.30937C2.30644 5.66043 2.23031 6.10886 2.27996 6.60598C2.30727 6.87952 2.44506 7.09413 2.62133 7.13961L4.13786 7.52719V8.0858C4.04352 8.07491 3.94917 8.06338 3.85483 8.06338C1.72921 8.06402 0 10.7405 0 14.0307C0 17.3216 1.72921 19.9987 3.85483 19.9987C5.35398 19.9987 6.65244 18.6643 7.28967 16.7252C7.96248 16.8398 8.56289 16.8533 8.97543 16.8578C9.12315 16.8591 9.24936 16.8603 9.34991 16.8667C9.35487 16.8667 9.36025 16.8667 9.36563 16.8674C9.94245 16.9026 10.5743 16.9282 11.1991 16.9282C12.527 16.9282 13.8213 16.8136 14.478 16.4369C14.5628 16.3882 14.6348 16.2979 14.6832 16.18C15.1098 15.1416 16.0694 12.0045 16.2101 10.6098C16.251 10.2043 16.1765 9.81931 16.0003 9.52591C15.968 9.4721 15.9262 9.43238 15.8881 9.3869ZM4.3551 5.74819C4.97909 5.74819 5.65977 5.88144 6.11038 5.96921C6.27796 6.00188 6.41575 6.02878 6.51009 6.0416C7.2305 6.13897 10.0687 6.41443 10.1891 6.42596C10.3765 6.44198 10.5569 6.25492 10.6115 5.96856C10.715 5.4266 12.4028 4.42339 13.9864 4.14088C15.2608 3.91346 15.4375 4.13063 15.6229 4.85966C15.6982 5.1569 15.1665 6.07811 14.5454 6.74627H7.70676H6.16334L3.25732 6.00252C3.41084 5.88528 3.7249 5.74819 4.3551 5.74819ZM7.29298 11.4721H7.06209H5.50211H4.96543V11.0282V8.81418V8.02815H6.12941H7.29339L7.29298 11.4721ZM5.50956 14.0307C5.50956 15.4439 4.76723 16.5932 3.85483 16.5932C2.94202 16.5932 2.19969 15.4439 2.19969 14.0307C2.19969 12.6182 2.94202 11.4689 3.85483 11.4689C3.94793 11.4689 4.04145 11.483 4.13786 11.5118V12.1121C4.13786 12.4657 4.32324 12.7527 4.55165 12.7527H5.28198C5.43136 13.146 5.50956 13.5823 5.50956 14.0307ZM3.85483 18.7175C2.18562 18.7175 0.827572 16.6156 0.827572 14.0307C0.827572 11.4465 2.18562 9.34461 3.85483 9.34461C3.94917 9.34461 4.04393 9.35166 4.13786 9.36511V10.2223C2.6474 9.92438 1.37211 11.7623 1.37211 14.0307C1.37211 16.1505 2.48603 17.8744 3.85483 17.8744C5.22363 17.8744 6.33713 16.1505 6.33713 14.0307C6.33713 13.5906 6.285 13.1621 6.18941 12.7527H6.7654C6.84319 13.171 6.88209 13.5996 6.88209 14.0307C6.88209 16.6156 5.52404 18.7175 3.85483 18.7175ZM7.64759 15.064C7.6629 15.0839 7.67739 15.1018 7.6927 15.1217C7.80235 15.2626 7.91035 15.401 8.01669 15.5355C7.87849 15.524 7.73738 15.5093 7.58842 15.4881C7.61118 15.3491 7.63146 15.2075 7.64759 15.064ZM14.0604 15.3004C13.338 15.6175 11.6857 15.7213 9.4666 15.5906C9.18977 15.3786 8.65723 14.6963 8.22151 14.1358C8.03572 13.8968 7.85862 13.672 7.69187 13.467C7.67697 13.2268 7.64925 12.9891 7.61532 12.7533H7.70718C7.93559 12.7533 8.12096 12.4663 8.12096 12.1127V8.02815H14.6724C14.7527 8.02815 14.8317 7.99163 14.8988 7.92373C15.0482 7.77254 15.3076 7.49195 15.572 7.13192C15.4495 7.8129 15.2687 8.45416 15.1185 8.90835C14.7618 8.81034 14.3973 8.80585 14.1544 8.82315C13.849 8.40739 13.4534 8.14602 13.0156 8.14602C12.0718 8.14602 11.3017 9.32027 11.2831 10.7745C11.2161 10.8795 10.9918 11.025 10.7936 11.0922C10.6169 11.1012 10.4498 11.1646 10.2958 11.2677V9.77575H10.5201C10.7485 9.77575 10.9339 9.48875 10.9339 9.13513C10.9339 8.78151 10.7485 8.49451 10.5201 8.49451H9.88204C9.65363 8.49451 9.46825 8.78151 9.46825 9.13513V13.2127C9.46825 14.3831 10.0831 15.335 10.8391 15.335H13.0152C13.7712 15.335 14.3861 14.3831 14.3861 13.2127C14.3861 12.9974 14.3642 12.7841 14.3224 12.5791C14.5959 12.0954 14.7482 11.4792 14.7482 10.8283C14.7482 10.5797 14.7192 10.344 14.6782 10.1159C15.0519 10.1595 15.3399 10.278 15.3928 10.4119C15.2832 11.4971 14.4738 14.2069 14.0604 15.3004ZM13.4741 12.7706C13.53 12.909 13.5585 13.0576 13.5585 13.2133C13.5585 13.6771 13.3148 14.0544 13.0152 14.0544H10.8391C10.5395 14.0544 10.2958 13.6771 10.2958 13.2133C10.2958 12.7495 10.5395 12.3722 10.8391 12.3722C10.8648 12.3722 10.8904 12.3683 10.9157 12.3613C11.1151 12.303 12.1103 11.9551 12.1103 10.8283C12.1103 10.0557 12.5162 9.42661 13.0156 9.42661C13.5151 9.42661 13.921 10.0551 13.921 10.8283C13.921 11.2549 13.7927 11.6547 13.5697 11.9257C13.4025 12.1281 13.3616 12.4926 13.4741 12.7706Z" fill="black"/>
</svg>
