<svg width="44" height="44" viewBox="0 0 44 44" fill="none" xmlns="http://www.w3.org/2000/svg">
<g filter="url(#filter0_d_246_906)">
<path d="M21.9993 35.8229C31.8915 35.8229 39.9107 27.8037 39.9107 17.9114C39.9107 8.01923 31.8915 0 21.9993 0C12.1071 0 4.08782 8.01923 4.08782 17.9114C4.08782 27.8037 12.1071 35.8229 21.9993 35.8229Z" fill="#E0E0E0"/>
</g>
<path d="M21.9985 35.2785C31.7404 35.2785 39.6378 27.3811 39.6378 17.6392C39.6378 7.89735 31.7404 0 21.9985 0C12.2567 0 4.35928 7.89735 4.35928 17.6392C4.35928 27.3811 12.2567 35.2785 21.9985 35.2785Z" fill="white"/>
<mask id="mask0_246_906" style="mask-type:luminance" maskUnits="userSpaceOnUse" x="10" y="5" width="24" height="25">
<path d="M33.4333 15.572H22.2727V20.1996H28.6968C28.098 23.1395 25.5936 24.8272 22.2727 24.8272C18.3528 24.8272 15.1952 21.6695 15.1952 17.7497C15.1952 13.8299 18.3528 10.6722 22.2727 10.6722C23.9604 10.6722 25.4847 11.2711 26.6825 12.2511L30.1668 8.76677C28.0435 6.91574 25.3214 5.77246 22.2727 5.77246C15.6307 5.77246 10.2954 11.1078 10.2954 17.7497C10.2954 24.3916 15.6307 29.727 22.2727 29.727C28.2613 29.727 33.7055 25.3716 33.7055 17.7497C33.7055 17.042 33.5966 16.2798 33.4333 15.572Z" fill="white"/>
</mask>
<g mask="url(#mask0_246_906)">
<path d="M9.20559 24.8256V10.6707L18.4607 17.7481L9.20559 24.8256Z" fill="#FBBC05"/>
</g>
<mask id="mask1_246_906" style="mask-type:luminance" maskUnits="userSpaceOnUse" x="10" y="5" width="24" height="25">
<path d="M33.4333 15.572H22.2727V20.1996H28.6968C28.098 23.1395 25.5936 24.8272 22.2727 24.8272C18.3528 24.8272 15.1952 21.6695 15.1952 17.7497C15.1952 13.8299 18.3528 10.6722 22.2727 10.6722C23.9604 10.6722 25.4847 11.2711 26.6825 12.2511L30.1668 8.76677C28.0435 6.91574 25.3214 5.77246 22.2727 5.77246C15.6307 5.77246 10.2954 11.1078 10.2954 17.7497C10.2954 24.3916 15.6307 29.727 22.2727 29.727C28.2613 29.727 33.7055 25.3716 33.7055 17.7497C33.7055 17.042 33.5966 16.2798 33.4333 15.572Z" fill="white"/>
</mask>
<g mask="url(#mask1_246_906)">
<path d="M9.20559 10.6713L18.4607 17.7487L22.2717 14.4278L35.3378 12.3045V4.68263H9.20559V10.6713Z" fill="#EA4335"/>
</g>
<mask id="mask2_246_906" style="mask-type:luminance" maskUnits="userSpaceOnUse" x="10" y="5" width="24" height="25">
<path d="M33.4333 15.572H22.2727V20.1996H28.6968C28.098 23.1395 25.5936 24.8272 22.2727 24.8272C18.3528 24.8272 15.1952 21.6695 15.1952 17.7497C15.1952 13.8299 18.3528 10.6722 22.2727 10.6722C23.9604 10.6722 25.4847 11.2711 26.6825 12.2511L30.1668 8.76677C28.0435 6.91574 25.3214 5.77246 22.2727 5.77246C15.6307 5.77246 10.2954 11.1078 10.2954 17.7497C10.2954 24.3916 15.6307 29.727 22.2727 29.727C28.2613 29.727 33.7055 25.3716 33.7055 17.7497C33.7055 17.042 33.5966 16.2798 33.4333 15.572Z" fill="white"/>
</mask>
<g mask="url(#mask2_246_906)">
<path d="M9.20559 24.8262L25.5382 12.3045L29.8391 12.8489L35.3378 4.68263V30.8148H9.20559V24.8262Z" fill="#34A853"/>
</g>
<mask id="mask3_246_906" style="mask-type:luminance" maskUnits="userSpaceOnUse" x="10" y="5" width="24" height="25">
<path d="M33.4333 15.572H22.2727V20.1996H28.6968C28.098 23.1395 25.5936 24.8272 22.2727 24.8272C18.3528 24.8272 15.1952 21.6695 15.1952 17.7497C15.1952 13.8299 18.3528 10.6722 22.2727 10.6722C23.9604 10.6722 25.4847 11.2711 26.6825 12.2511L30.1668 8.76677C28.0435 6.91574 25.3214 5.77246 22.2727 5.77246C15.6307 5.77246 10.2954 11.1078 10.2954 17.7497C10.2954 24.3916 15.6307 29.727 22.2727 29.727C28.2613 29.727 33.7055 25.3716 33.7055 17.7497C33.7055 17.042 33.5966 16.2798 33.4333 15.572Z" fill="white"/>
</mask>
<g mask="url(#mask3_246_906)">
<path d="M35.3382 30.8142L18.4611 17.7481L16.2834 16.1149L35.3382 10.6707V30.8142Z" fill="#4285F4"/>
</g>
<defs>
<filter id="filter0_d_246_906" x="0" y="0" width="44" height="44" filterUnits="userSpaceOnUse" color-interpolation-filters="sRGB">
<feFlood flood-opacity="0" result="BackgroundImageFix"/>
<feColorMatrix in="SourceAlpha" type="matrix" values="0 0 0 0 0 0 0 0 0 0 0 0 0 0 0 0 0 0 127 0" result="hardAlpha"/>
<feOffset dy="4"/>
<feGaussianBlur stdDeviation="2"/>
<feComposite in2="hardAlpha" operator="out"/>
<feColorMatrix type="matrix" values="0 0 0 0 0 0 0 0 0 0 0 0 0 0 0 0 0 0 0.25 0"/>
<feBlend mode="normal" in2="BackgroundImageFix" result="effect1_dropShadow_246_906"/>
<feBlend mode="normal" in="SourceGraphic" in2="effect1_dropShadow_246_906" result="shape"/>
</filter>
</defs>
</svg>
