<svg width="25" height="24" viewBox="0 0 25 24" fill="none" xmlns="http://www.w3.org/2000/svg">
<path fill-rule="evenodd" clip-rule="evenodd" d="M14.9648 1.28628C14.5706 0.899445 13.9375 0.90539 13.5507 1.29956C13.1638 1.69374 13.1698 2.32688 13.5639 2.71372L15.8936 5H12.2265C7.75267 5 4.09375 8.5641 4.09375 13C4.09375 17.4359 7.75267 21 12.2265 21C16.7002 21 20.3592 17.4359 20.3592 13V11C20.3592 10.4477 19.9114 10 19.3592 10C18.8069 10 18.3592 10.4477 18.3592 11V13C18.3592 16.2961 15.6312 19 12.2265 19C8.82167 19 6.09375 16.2961 6.09375 13C6.09375 9.70391 8.82167 7 12.2265 7H15.8936L13.5639 9.28629C13.1698 9.67313 13.1638 10.3063 13.5507 10.7004C13.9375 11.0946 14.5706 11.1006 14.9648 10.7137L19.0406 6.71372L19.7679 6L19.0406 5.28629L14.9648 1.28628Z" fill="black"/>
</svg>
