<svg width="20" height="20" viewBox="0 0 20 20" fill="none" xmlns="http://www.w3.org/2000/svg">
<path d="M14.1654 17.5V15.8333C14.1654 14.9493 13.8142 14.1014 13.1891 13.4763C12.5639 12.8512 11.7161 12.5 10.832 12.5H4.16536C3.28131 12.5 2.43346 12.8512 1.80834 13.4763C1.18322 14.1014 0.832031 14.9493 0.832031 15.8333V17.5M19.1654 17.5V15.8333C19.1648 15.0948 18.919 14.3773 18.4665 13.7936C18.014 13.2099 17.3805 12.793 16.6654 12.6083M13.332 2.60833C14.049 2.79192 14.6846 3.20892 15.1384 3.79359C15.5922 4.37827 15.8386 5.09736 15.8386 5.8375C15.8386 6.57764 15.5922 7.29673 15.1384 7.88141C14.6846 8.46608 14.049 8.88308 13.332 9.06667M10.832 5.83333C10.832 7.67428 9.33965 9.16667 7.4987 9.16667C5.65775 9.16667 4.16536 7.67428 4.16536 5.83333C4.16536 3.99238 5.65775 2.5 7.4987 2.5C9.33965 2.5 10.832 3.99238 10.832 5.83333Z" stroke="black" stroke-width="1.5" stroke-linecap="round" stroke-linejoin="round"/>
</svg>
